# xmcd CD database file
#
# Track frame offsets:
#	150
#	13536
#	27269
#	40634
#	54300
#	68231
#	82103
#	97534
#	111159
#	124467
#	138477
#	151931
#	165599
#	178441
#	191673
#	204517
#	218421
#	232707
#	244626
#	257424
#	271665
#
# Disc length: 3791 seconds
#
# Revision: 0
# Processed by: cddbd v1.5.1PL0 Copyright (c) Steve Scherf et al.
# Submitted via: CDex 1.50beta9
#
DISCID=0e0ecd15
DTITLE=Gene Ammons - You can depend on me, CD 2
DYEAR=1900
DGENRE=Jazz
TTITLE0=Daddy Sauce's Airlines
TTITLE1=Little Irv
TTITLE2=Abdullah's Fiesta
TTITLE3=Brother Jug's Sermon
TTITLE4=Bless You
TTITLE5=Stuffy
TTITLE6=Once in a While
TTITLE7=Ev'erything depends on you
TTITLE8=Hot Spring
TTITLE9=When you're gone
TTITLE10=Little Slam
TTITLE11=Pennies from Heaven
TTITLE12=The Last Mile (The last Check)
TTITLE13=Cha-Bootie
TTITLE14=Full Moon
TTITLE15=Bye bye
TTITLE16=Let it be
TTITLE17=Blues up and down
TTITLE18=You can depend on me
TTITLE19=Touch of the Blues
TTITLE20=Dumb Woman Blues
EXTD=
EXTT0=
EXTT1=
EXTT2=
EXTT3=
EXTT4=
EXTT5=
EXTT6=
EXTT7=
EXTT8=
EXTT9=
EXTT10=
EXTT11=
EXTT12=
EXTT13=
EXTT14=
EXTT15=
EXTT16=
EXTT17=
EXTT18=
EXTT19=
EXTT20=
PLAYORDER=
